<svg width="400" height="100" xmlns="http://www.w3.org/2000/svg">
 <!-- Created with Method Draw - http://github.com/duopixel/Method-Draw/ -->

 <g>
  <title>background</title>
  <rect fill="#fff" id="canvas_background" height="102" width="402" y="-1" x="-1"/>
 </g>
 <g>
  <title>Layer 1</title>
  <!-- Created with Method Draw - http://github.com/duopixel/Method-Draw/ -->
  <g stroke="null" id="svg_118">
   <path stroke="null" id="svg_85" fill="#B4E66E" d="m111.188199,12.336251l-77.66417,0c-1.191294,0 -2.157296,0.966002 -2.157296,2.157296l0,45.303973l6.471888,0c2.38284,0 4.314592,1.9315 4.314592,4.314592c0,2.38284 -1.932005,4.314592 -4.314592,4.314592l-6.471888,0l0,6.471888c0,1.191294 0.966002,2.157296 2.157296,2.157296l79.821466,0l0,-62.562341c0,-1.191294 -0.966002,-2.157296 -2.157296,-2.157296z"/>
   <path stroke="null" id="svg_86" fill="#FFDC64" d="m139.233552,46.853744l-25.888057,0l0,30.202649l34.517241,0l0,-21.573465c0,-4.765679 -3.863505,-8.629184 -8.629184,-8.629184z"/>
   <path stroke="null" id="svg_87" fill="#FFC850" d="m113.345495,53.325632l23.371253,0c2.383092,0 4.314592,1.9315 4.314592,4.314592l0,19.415916l-27.685845,0l0,-23.730508z"/>
   <path stroke="null" id="svg_88" fill="#FFDC64" d="m130.604115,20.965687l-17.25862,0l0,8.629436l23.730761,0l0,-2.157296c0,-3.574638 -2.897755,-6.47214 -6.47214,-6.47214z"/>
   <polygon stroke="null" id="svg_89" fill="#B4E6FF" points="139.23343467712402,46.853702545166016 134.919340133667,29.595077514648438 113.34525108337402,29.595077514648438 113.34525108337402,46.853702545166016 "/>
   <path stroke="null" id="svg_90" fill="#F1F4FB" d="m139.233552,55.482928l8.629436,0l0,8.629436l-4.314592,0c-2.383092,0 -4.314592,-1.9315 -4.314592,-4.314592l0,-4.314844l-0.000252,0z"/>
   <path stroke="null" id="svg_91" fill="#E1A546" d="m128.446819,61.955068c-6.50191,0 -12.158663,3.598857 -15.101324,8.909978l0,6.191346l32.210844,0c-1.063889,-8.511367 -8.310042,-15.101324 -17.109519,-15.101324z"/>
   <path stroke="null" id="svg_92" fill="#FFC850" d="m141.031088,67.41857l0,9.637823l4.525251,0c-0.463197,-3.705826 -2.099775,-7.045838 -4.525251,-9.637823z"/>
   <circle stroke="null" transform="matrix(0.2522858156899353,0,0,0.2522858156899353,-20420.035902556687,-2871.421746587539) " id="svg_93" fill="#5B5D6E" r="42.756001" cy="11695.605745" cx="81449.219275"/>
   <path stroke="null" id="svg_94" fill="#9BD6FF" d="m121.974931,36.067012l14.561937,0l-1.617909,-6.471888l-21.573212,0l0,17.25862l6.471888,0l0,-8.629436c-0.000252,-1.191294 0.96575,-2.157296 2.157296,-2.157296z"/>
   <path stroke="null" id="svg_95" fill="#A0D755" d="m57.25479,61.955068c-5.447608,0 -10.298055,2.529922 -13.46071,6.471888l-5.955207,0l-6.47214,0l0,6.471888c0,1.191294 0.966002,2.157296 2.157296,2.157296l79.821466,0l0,-8.629436l-42.629996,0c-3.162655,-3.941714 -8.013102,-6.471636 -13.46071,-6.471636z"/>
   <circle stroke="null" transform="matrix(0.2522858156899353,0,0,0.2522858156899353,-20420.035902556687,-2871.421746587539) " id="svg_96" fill="#5B5D6E" r="42.756001" cy="11695.605745" cx="81167.031275"/>
   <path stroke="null" id="svg_97" d="m140.842883,44.95277l-3.345058,-13.379978c0.914536,-0.19426 1.600754,-1.005611 1.600754,-1.977669l0,-2.157296c0,-4.683938 -3.810777,-8.494463 -8.494463,-8.494463l-15.236045,0l0,-4.449817c0,-2.304883 -1.874988,-4.179871 -4.179871,-4.179871l-77.66417,0c-2.304883,0 -4.179871,1.874988 -4.179871,4.179871l0,36.674789c0,1.116869 0.905454,2.022575 2.022575,2.022575s2.022575,-0.905454 2.022575,-2.022575l0,-36.674789c0,-0.074424 0.060296,-0.134721 0.134721,-0.134721l77.663918,0c0.074424,0 0.134721,0.060296 0.134721,0.134721l0,36.675294c0,1.116869 0.905454,2.022575 2.022575,2.022575c1.116869,0 2.022575,-0.905454 2.022575,-2.022575l0,-2.292773l23.858417,0c0.001766,0 0.003532,0.000505 0.005298,0.000505c0.001766,0 0.003784,-0.000252 0.00555,-0.000252c2.93585,0.001766 5.428686,1.928977 6.284944,4.584286l-6.288981,0c-1.116869,0 -2.022575,0.905454 -2.022575,2.022575l0,4.314592c0,3.494411 2.842757,6.337167 6.337167,6.337167l2.292269,0l0,8.898878l-5.288415,0c-1.73724,-5.015947 -6.505694,-8.629436 -12.105178,-8.629436s-10.36819,3.613237 -12.105178,8.629436l-0.973823,0l0,-15.236045c0,-1.116869 -0.905454,-2.022575 -2.022575,-2.022575c-1.116869,0 -2.022575,0.905454 -2.022575,2.022575l0,15.235793l-41.962195,0c-1.73724,-5.016199 -6.505694,-8.629436 -12.105178,-8.629436s-10.36819,3.613237 -12.105178,8.629436l-11.625583,0c-0.074424,0 -0.134721,-0.060296 -0.134721,-0.134721l0,-4.449565l8.764157,0c1.116869,0 2.022575,-0.905454 2.022575,-2.022575c0,-1.116869 -0.905454,-2.022575 -2.022575,-2.022575l-19.415916,0c-1.116869,0 -2.022575,0.905454 -2.022575,2.022575c0,1.116869 0.905454,2.022575 2.022575,2.022575l6.606861,0l0,4.449565c0,2.304883 1.874988,4.179871 4.179871,4.179871l10.924985,0c-0.000505,0.044907 -0.003532,0.089561 -0.003532,0.134721c0,7.062994 5.746314,12.809055 12.809055,12.809055s12.809055,-5.746062 12.809055,-12.809055c0,-0.045411 -0.003027,-0.089814 -0.003532,-0.134721l45.580478,0c-0.000505,0.044907 -0.003532,0.089561 -0.003532,0.134721c0,7.062994 5.746314,12.809055 12.809055,12.809055c7.062741,0 12.809055,-5.746062 12.809055,-12.809055c0,-0.045411 -0.003027,-0.089814 -0.003532,-0.134721l6.610645,0c1.116869,0 2.022575,-0.905454 2.022575,-2.022575l0,-21.573465c0.000252,-5.326006 -3.929604,-9.751604 -9.042176,-10.529905zm-25.474813,-13.335324l17.97158,0l3.30343,13.213722l-21.275011,0l0,-13.213722zm15.236045,-8.629184c2.45348,0 4.449565,1.996085 4.449565,4.449565l0,0.134721l-19.68561,0l0,-4.584286l15.236045,0zm-73.349326,64.989583c-4.832535,0 -8.764157,-3.93137 -8.764157,-8.764157c0,-4.832787 3.931622,-8.764157 8.764157,-8.764157c4.832535,0 8.764157,3.93137 8.764157,8.764157c0,4.832787 -3.931622,8.764157 -8.764157,8.764157zm71.19203,0c-4.832535,0 -8.764157,-3.93137 -8.764157,-8.764157c0,-4.832787 3.931622,-8.764157 8.764157,-8.764157c4.832535,0 8.764157,3.93137 8.764157,8.764157c0,4.832787 -3.931622,8.764157 -8.764157,8.764157zm15.101324,-25.888057c-1.263952,0 -2.292269,-1.028317 -2.292269,-2.292269l0,-2.292269l4.584286,0l0,4.584286l-2.292017,0l0,0.000252z"/>
   <path stroke="null" id="svg_98" d="m57.25479,75.033817c-2.304883,0 -4.179871,1.874988 -4.179871,4.179871c0,2.304883 1.874988,4.179871 4.179871,4.179871c2.304883,0 4.179871,-1.874988 4.179871,-4.179871c0,-2.304883 -1.874988,-4.179871 -4.179871,-4.179871z"/>
   <path stroke="null" id="svg_99" d="m128.446819,75.033817c-2.304883,0 -4.179871,1.874988 -4.179871,4.179871c0,2.304883 1.874988,4.179871 4.179871,4.179871s4.179871,-1.874988 4.179871,-4.179871c0,-2.304883 -1.874988,-4.179871 -4.179871,-4.179871z"/>
   <path stroke="null" id="svg_100" d="m72.491087,68.426956c0,1.116869 0.905454,2.022575 2.022575,2.022575l30.202396,0c1.116869,0 2.022575,-0.905454 2.022575,-2.022575c0,-1.116869 -0.905454,-2.022575 -2.022575,-2.022575l-30.202649,0c-1.116869,0 -2.022323,0.905706 -2.022323,2.022575z"/>
   <path stroke="null" id="svg_101" d="m27.052141,61.820095l25.888057,0c1.116869,0 2.022575,-0.905454 2.022575,-2.022575c0,-1.116869 -0.905454,-2.022575 -2.022575,-2.022575l-25.888057,0c-1.116869,0 -2.022575,0.905454 -2.022575,2.022575c0,1.117122 0.905706,2.022575 2.022575,2.022575z"/>
   <path stroke="null" id="svg_102" d="m88.184778,30.322211l-17.98596,17.985708l-9.356524,-9.356524c-0.789907,-0.789907 -2.07051,-0.789907 -2.860164,0c-0.789907,0.789907 -0.789907,2.070257 0,2.860164l10.786732,10.786732c0.394827,0.39508 0.912518,0.592367 1.429956,0.592367s1.035129,-0.197288 1.429956,-0.592367l19.415916,-19.415916c0.789907,-0.789907 0.789907,-2.070257 0,-2.860164c-0.789402,-0.789655 -2.070257,-0.789655 -2.859912,0z"/>
   <g stroke="null" transform="matrix(0.2522858156899353,0,0,0.2522858156899353,-20420.035902556687,-2871.421746587539) " id="svg_103"/>
   <g stroke="null" transform="matrix(0.2522858156899353,0,0,0.2522858156899353,-20420.035902556687,-2871.421746587539) " id="svg_104"/>
   <g stroke="null" transform="matrix(0.2522858156899353,0,0,0.2522858156899353,-20420.035902556687,-2871.421746587539) " id="svg_105"/>
   <g stroke="null" transform="matrix(0.2522858156899353,0,0,0.2522858156899353,-20420.035902556687,-2871.421746587539) " id="svg_106"/>
   <g stroke="null" transform="matrix(0.2522858156899353,0,0,0.2522858156899353,-20420.035902556687,-2871.421746587539) " id="svg_107"/>
   <g stroke="null" transform="matrix(0.2522858156899353,0,0,0.2522858156899353,-20420.035902556687,-2871.421746587539) " id="svg_108"/>
   <g stroke="null" transform="matrix(0.2522858156899353,0,0,0.2522858156899353,-20420.035902556687,-2871.421746587539) " id="svg_109"/>
   <g stroke="null" transform="matrix(0.2522858156899353,0,0,0.2522858156899353,-20420.035902556687,-2871.421746587539) " id="svg_110"/>
   <g stroke="null" transform="matrix(0.2522858156899353,0,0,0.2522858156899353,-20420.035902556687,-2871.421746587539) " id="svg_111"/>
   <g stroke="null" transform="matrix(0.2522858156899353,0,0,0.2522858156899353,-20420.035902556687,-2871.421746587539) " id="svg_112"/>
   <g stroke="null" transform="matrix(0.2522858156899353,0,0,0.2522858156899353,-20420.035902556687,-2871.421746587539) " id="svg_113"/>
   <g stroke="null" transform="matrix(0.2522858156899353,0,0,0.2522858156899353,-20420.035902556687,-2871.421746587539) " id="svg_114"/>
   <g stroke="null" transform="matrix(0.2522858156899353,0,0,0.2522858156899353,-20420.035902556687,-2871.421746587539) " id="svg_115"/>
   <g stroke="null" transform="matrix(0.2522858156899353,0,0,0.2522858156899353,-20420.035902556687,-2871.421746587539) " id="svg_116"/>
   <g stroke="null" transform="matrix(0.2522858156899353,0,0,0.2522858156899353,-20420.035902556687,-2871.421746587539) " id="svg_117"/>
  </g>
  <text xml:space="preserve" text-anchor="start" font-family="Oswald, sans-serif" font-size="60" id="svg_119" y="79.02381" x="173.300024" stroke-width="0" stroke="#000" fill="#000000">GIVE</text>
  <text transform="rotate(-0.8208901882171631 305.9756164550765,50.93154907226633) " xml:space="preserve" text-anchor="start" font-family="Oswald, sans-serif" font-size="60" id="svg_120" y="78.071429" x="273.96669" stroke-width="0" stroke="#000" fill="#f9c84f">ME</text>
  <text xml:space="preserve" text-anchor="start" font-family="Oswald, sans-serif" font-size="37" id="svg_122" y="77.380948" x="342.306482" stroke-width="0" stroke="#f9c84f" fill="#000000">.lk</text>
 </g>
</svg>