<?xml version="1.0" encoding="iso-8859-1"?>
<!-- Generator: Adobe Illustrator 19.0.0, SVG Export Plug-In . SVG Version: 6.00 Build 0)  -->
<svg version="1.1" id="Capa_1" xmlns="http://www.w3.org/2000/svg" xmlns:xlink="http://www.w3.org/1999/xlink" x="0px" y="0px"
	 viewBox="0 0 434.264 434.264" style="enable-background:new 0 0 434.264 434.264;" xml:space="preserve">
<path style="fill:#756556;" d="M57.124,408c-13.232,0-24-10.768-24-24V96c0-13.232,10.768-24,24-24h256c13.232,0,24,10.768,24,24
	v288c0,13.232-10.768,24-24,24H57.124z"/>
<rect x="57.132" y="96" style="fill:#FFFFFF;" width="256" height="288"/>
<path style="fill:#CDD7DE;" d="M97.132,120V95.616c0.136-17.52,12.016-33.192,28.888-38.056
	c10.056-2.896,17.784-10.616,20.656-20.64C151.58,19.888,167.396,8,185.124,8c17.744,0,33.552,11.888,38.456,28.92
	c2.88,10.024,10.592,17.736,20.624,20.632c17.032,4.896,28.92,20.704,28.92,38.448v24H97.132z"/>
<path style="fill:#BDC8CF;" d="M97.132,96v24h176V96H97.132z"/>
<circle style="fill:#010101;" cx="185.372" cy="48" r="12"/>
<circle style="fill:#D5E2F2;" cx="312.644" cy="288" r="88.64"/>
<path style="fill:#565656;" d="M239.748,338.136l-62.912,63.184c-1.504,1.504-2.344,3.512-2.328,5.64
	c0,2.144,0.832,4.152,2.36,5.664l11.328,11.304c1.504,1.504,3.504,2.336,5.64,2.336c2.144,0,4.16-0.832,5.656-2.352l62.864-63.128
	C253.524,354.664,245.852,346.992,239.748,338.136z"/>
<rect x="89.132" y="160" width="192" height="16"/>
<rect x="89.132" y="304" width="96" height="16"/>
<path d="M360.644,288c0,26.464-21.536,48-48,48v16c35.344,0,64-28.656,64-64H360.644z"/>
<path d="M205.844,256H89.132v16h113.28C203.196,266.536,204.3,261.176,205.844,256z"/>
<path d="M234.9,208H89.132v16h132.216C225.372,218.248,229.9,212.888,234.9,208z"/>
<path d="M409.132,288c0-53.016-42.984-96-96-96s-96,42.984-96,96c0,17.648,4.84,34.128,13.152,48.336l-59.104,59.328
	c-1.28,1.28-2.12,2.8-2.872,4.336c-37.048,0-74.16,0-111.176,0c-8.824,0-16-7.176-16-16V96c0-8.824,7.176-16,16-16h34.744
	c-1.728,4.888-2.696,10.144-2.744,15.616V128h192V96c0-5.616-0.992-10.992-2.768-16h34.768c8.824,0,16,7.176,16,16
	c0,14.264,0,44.96,0,81.272c5.464,0.784,10.824,1.888,16,3.44c0-26.936,0-54.936,0-84.712c0-17.672-14.328-32-32-32h-44.424
	c-5.928-6.584-13.536-11.624-22.28-14.136c-7.368-2.12-13.04-7.792-15.16-15.152C225.5,14.664,207.028,0,185.132,0
	s-40.368,14.664-46.136,34.704c-2.12,7.376-7.808,13.04-15.184,15.168c-8.736,2.52-16.344,7.552-22.264,14.128H57.132
	c-17.672,0-32,14.328-32,32v288c0,17.672,14.328,32,32,32c34.32,0,72.4,0,112.552,0c0.528,0.76,0.848,1.616,1.528,2.288
	l11.328,11.304c3.12,3.12,7.208,4.672,11.296,4.672c4.104,0,8.2-1.568,11.328-4.696L218.684,416c30.856,0,62.504,0,94.448,0
	c17.672,0,32-14.328,32-32c0-1.872,0-3.72,0-5.584C382.396,365.224,409.132,329.776,409.132,288z M128.244,65.248
	c12.712-3.664,22.48-13.424,26.128-26.112C158.292,25.512,170.94,16,185.132,16s26.84,9.512,30.76,23.128
	c3.656,12.696,13.416,22.456,26.112,26.112c13.616,3.92,23.128,16.568,23.128,30.76v16h-160V95.744
	C105.244,81.672,114.748,69.136,128.244,65.248z M239.588,349.648c3.432,4.096,7.224,7.872,11.288,11.344L212.028,400
	c-7.528,0-15.056,0-22.584,0L239.588,349.648z M193.836,418.264L191.572,416c1.504,0,3.008,0,4.52,0L193.836,418.264z M329.132,384
	c0,8.824-7.176,16-16,16c-26.2,0-52.312,0-78.496,0l29.48-29.568c14.36,8.56,31.08,13.568,49.016,13.568
	c5.464,0,10.784-0.56,16-1.44C329.132,383.016,329.132,383.624,329.132,384z M313.132,368c-44.112,0-80-35.888-80-80
	s35.888-80,80-80s80,35.888,80,80S357.244,368,313.132,368z"/>
<g>
</g>
<g>
</g>
<g>
</g>
<g>
</g>
<g>
</g>
<g>
</g>
<g>
</g>
<g>
</g>
<g>
</g>
<g>
</g>
<g>
</g>
<g>
</g>
<g>
</g>
<g>
</g>
<g>
</g>
</svg>
