<?xml version="1.0" encoding="iso-8859-1"?>
<!-- Generator: Adobe Illustrator 19.0.0, SVG Export Plug-In . SVG Version: 6.00 Build 0)  -->
<svg version="1.1" id="Capa_1" xmlns="http://www.w3.org/2000/svg" xmlns:xlink="http://www.w3.org/1999/xlink" x="0px" y="0px"
	 viewBox="0 0 416 416" style="enable-background:new 0 0 416 416;" xml:space="preserve">
<path style="fill:#756556;" d="M40.096,408c-13.232,0-24-10.768-24-24V96c0-13.232,10.768-24,24-24h256c13.232,0,24,10.768,24,24
	v288c0,13.232-10.768,24-24,24H40.096z"/>
<rect x="40.104" y="96" style="fill:#FFFFFF;" width="256" height="288"/>
<path style="fill:#CDD7DE;" d="M80.104,120V95.616c0.136-17.52,12.016-33.192,28.888-38.056
	c10.056-2.896,17.784-10.616,20.656-20.64C134.552,19.888,150.368,8,168.096,8c17.744,0,33.552,11.888,38.456,28.92
	c2.88,10.024,10.592,17.736,20.624,20.632c17.032,4.896,28.92,20.704,28.92,38.448v24H80.104z"/>
<path style="fill:#BDC8CF;" d="M80.104,96v24h176V96H80.104z"/>
<g>
	<rect x="72.104" y="160" style="fill:#5885C4;" width="192" height="32"/>
	<rect x="72.104" y="224" style="fill:#5885C4;" width="192" height="32"/>
	<rect x="72.104" y="288" style="fill:#5885C4;" width="80" height="32"/>
</g>
<path style="fill:#EDE6D1;" d="M192.104,293.648v34.296l33.6-0.008l19.12-19.12l-33.944-33.944L192.104,293.648z"/>
<path style="fill:#E3D2AC;" d="M227.848,291.84L191.976,328c10.776,0,23.384,0,33.704-0.048l19.136-19.136L227.848,291.84z"/>
<rect x="204.318" y="211.029" transform="matrix(-0.7071 0.7071 -0.7071 -0.7071 651.6636 200.4497)" style="fill:#F8C467;" width="159.998" height="48.32"/>
<rect x="212.894" y="231.762" transform="matrix(-0.7071 0.7071 -0.7071 -0.7071 672.3659 209.0199)" style="fill:#F5A730;" width="159.998" height="24"/>
<rect x="336.194" y="143.185" transform="matrix(-0.7071 0.7071 -0.7071 -0.7071 719.5635 36.6368)" style="fill:#CED8DF;" width="32" height="48.32"/>
<path style="fill:#EAA6A6;" d="M346.64,139.112l33.944,33.944l16.968-16.968c3.12-3.12,3.112-8.2,0-11.312l-22.624-22.624
	c-3.112-3.112-8.192-3.12-11.312,0L346.64,139.112z"/>
<rect x="344.808" y="163.86" transform="matrix(-0.7071 0.7071 -0.7071 -0.7071 740.2884 45.0818)" style="fill:#90A1B2;" width="32" height="24"/>
<path style="fill:#B1807F;" d="M363.616,156.08l16.968,16.968l16.968-16.968c3.12-3.12,3.12-8.192,0-11.312l-11.312-11.312
	L363.616,156.08z"/>
<g>
	<circle style="fill:#010101;" cx="168.264" cy="48" r="12"/>
	<path style="fill:#010101;" d="M403.216,139.104l-22.632-22.624c-6.248-6.248-16.384-6.248-22.624,0
		c-57.752,57.744-115.648,115.648-173.856,173.856c0,27.688,0,21.688,0,45.664c38.52,0,28.776,0.016,44.912-0.072l83.088-83.08
		c0,71.128,0,113.72,0,131.152c0,8.824-7.176,16-16,16c-85.456,0-170.768,0-256,0c-8.824,0-16-7.176-16-16V96
		c0-8.824,7.176-16,16-16h34.744c-1.728,4.896-2.696,10.144-2.736,15.616V128h192V96c0-5.616-0.992-10.992-2.768-16h34.76
		c8.824,0,16,7.176,16,16c0,8.968,0,24.464,0,43.72l16-16c0-9.152,0-18.24,0-27.72c0-17.672-14.328-32-32-32H251.68
		c-5.928-6.584-13.536-11.624-22.28-14.136c-7.368-2.12-13.04-7.792-15.16-15.152C208.472,14.664,190,0,168.104,0
		s-40.368,14.664-46.136,34.704c-2.12,7.376-7.808,13.04-15.184,15.168C98.048,52.392,90.44,57.424,84.52,64H40.104
		c-17.672,0-32,14.328-32,32v288c0,17.672,14.328,32,32,32c73.464,0,163.76,0,256,0c17.672,0,32-14.328,32-32
		c0-65.784,0-80.864,0-147.152l75.112-75.112C409.456,155.488,409.456,145.352,403.216,139.104z M111.216,65.248
		c12.712-3.664,22.48-13.424,26.128-26.112C141.256,25.512,153.904,16,168.104,16c14.192,0,26.84,9.512,30.76,23.128
		c3.648,12.696,13.416,22.456,26.112,26.112c13.616,3.92,23.128,16.568,23.128,30.76v16h-160V95.744
		C88.216,81.672,97.72,69.136,111.216,65.248z M222.352,319.968C218.2,319.992,216.504,320,210.76,320l-10.656-10.664V296.96
		c3.968-3.968,6.712-6.712,10.776-10.776l22.624,22.624L222.352,319.968z M244.824,297.496L222.2,274.872l101.824-101.824
		l22.624,22.624L244.824,297.496z M357.96,184.36l-22.624-22.632l11.312-11.312l22.624,22.632L357.96,184.36z M380.584,161.736
		l-22.624-22.624l11.312-11.312l22.624,22.624L380.584,161.736z"/>
</g>
<g>
</g>
<g>
</g>
<g>
</g>
<g>
</g>
<g>
</g>
<g>
</g>
<g>
</g>
<g>
</g>
<g>
</g>
<g>
</g>
<g>
</g>
<g>
</g>
<g>
</g>
<g>
</g>
<g>
</g>
</svg>
