<svg width="350" height="100" xmlns="http://www.w3.org/2000/svg">
 <!-- Created with Method Draw - http://github.com/duopixel/Method-Draw/ -->

 <g>
  <title>background</title>
  <rect fill="#fff" id="canvas_background" height="102" width="352" y="-1" x="-1"/>
 </g>
 <g>
  <title>Layer 1</title>
  <g stroke="null" id="svg_38">
   <path stroke="null" id="svg_5" fill="#B4E66E" d="m127.362,12.127473l-81.002378,0c-1.242499,0 -2.250022,1.007524 -2.250022,2.250022l0,47.251256l6.750067,0c2.48526,0 4.500044,2.014521 4.500044,4.500044c0,2.48526 -2.015047,4.500044 -4.500044,4.500044l-6.750067,0l0,6.750067c0,1.242499 1.007524,2.250022 2.250022,2.250022l83.2524,0l0,-65.251433c0,-1.242499 -1.007524,-2.250022 -2.250022,-2.250022z"/>
   <path stroke="null" id="svg_6" fill="#FFDC64" d="m156.612815,48.128618l-27.000793,0l0,31.500837l36.000881,0l0,-22.500748c0,-4.97052 -4.029568,-9.000089 -9.000089,-9.000089z"/>
   <path stroke="null" id="svg_7" fill="#FFC850" d="m129.612022,54.878684l24.375811,0c2.485523,0 4.500044,2.014521 4.500044,4.500044l0,20.250463l-28.875855,0l0,-24.750507z"/>
   <path stroke="null" id="svg_8" fill="#FFDC64" d="m147.612463,21.127825l-18.000441,0l0,9.000352l24.75077,0l0,-2.250022c0,-3.728285 -3.022308,-6.75033 -6.75033,-6.75033z"/>
   <polygon stroke="null" id="svg_9" fill="#B4E6FF" points="156.61280822753906,48.128631591796875 152.1125030517578,30.128189086914062 129.61203002929688,30.128189086914062 129.61203002929688,48.128631591796875 "/>
   <path stroke="null" id="svg_10" fill="#F1F4FB" d="m156.612815,57.128707l9.000352,0l0,9.000352l-4.500044,0c-2.485523,0 -4.500044,-2.014521 -4.500044,-4.500044l0,-4.500308l-0.000263,0z"/>
   <path stroke="null" id="svg_11" fill="#E1A546" d="m145.362441,63.879036c-6.781379,0 -12.681274,3.753545 -15.750419,9.292952l0,6.457466l33.59535,0c-1.109618,-8.877207 -8.66723,-15.750419 -17.844931,-15.750419z"/>
   <path stroke="null" id="svg_12" fill="#FFC850" d="m158.487614,69.577373l0,10.052081l4.719758,0c-0.483106,-3.865112 -2.190029,-7.348687 -4.719758,-10.052081z"/>
   <circle stroke="null" transform="matrix(0.26312971601466667,0,0,0.26312971601466667,-273.60055446624756,-472.37263697606977) " id="svg_13" fill="#5B5D6E" r="42.756001" cy="2106.383583" cx="1592.229876"/>
   <path stroke="null" id="svg_14" fill="#9BD6FF" d="m138.612374,36.878244l15.187847,0l-1.687451,-6.750067l-22.500485,0l0,18.000441l6.750067,0l0,-9.000352c-0.000263,-1.242499 1.007261,-2.250022 2.250022,-2.250022z"/>
   <path stroke="null" id="svg_15" fill="#A0D755" d="m71.110392,63.879036c-5.68176,0 -10.740692,2.638665 -14.039286,6.750067l-6.211177,0l-6.75033,0l0,6.750067c0,1.242499 1.007524,2.250022 2.250022,2.250022l83.2524,0l0,-9.000352l-44.462344,0c-3.298594,-4.111139 -8.357526,-6.749803 -14.039286,-6.749803z"/>
   <circle stroke="null" transform="matrix(0.26312971601466667,0,0,0.26312971601466667,-273.60055446624756,-472.37263697606977) " id="svg_16" fill="#5B5D6E" r="42.756001" cy="2106.383583" cx="1310.041876"/>
   <path stroke="null" id="svg_17" d="m158.291319,46.145935l-3.488837,-13.955084c0.953845,-0.20261 1.669558,-1.048835 1.669558,-2.062674l0,-2.250022c0,-4.885266 -3.974574,-8.859578 -8.859578,-8.859578l-15.89093,0l0,-4.641082c0,-2.403953 -1.95558,-4.359533 -4.359533,-4.359533l-81.002378,0c-2.403953,0 -4.359533,1.95558 -4.359533,4.359533l0,38.251167c0,1.164875 0.944373,2.109511 2.109511,2.109511s2.109511,-0.944373 2.109511,-2.109511l0,-38.251167c0,-0.077623 0.062888,-0.140511 0.140511,-0.140511l81.002115,0c0.077623,0 0.140511,0.062888 0.140511,0.140511l0,38.251693c0,1.164875 0.944373,2.109511 2.109511,2.109511c1.164875,0 2.109511,-0.944373 2.109511,-2.109511l0,-2.391323l24.883914,0c0.001842,0 0.003684,0.000526 0.005526,0.000526c0.001842,0 0.003947,-0.000263 0.005789,-0.000263c3.062041,0.001842 5.662025,2.01189 6.555087,4.78133l-6.559298,0c-1.164875,0 -2.109511,0.944373 -2.109511,2.109511l0,4.500044c0,3.64461 2.964946,6.609555 6.609555,6.609555l2.390797,0l0,9.281374l-5.515725,0c-1.811911,-5.231545 -6.785326,-9.000352 -12.62549,-9.000352s-10.813842,3.768544 -12.62549,9.000352l-1.015681,0l0,-15.89093c0,-1.164875 -0.944373,-2.109511 -2.109511,-2.109511c-1.164875,0 -2.109511,0.944373 -2.109511,2.109511l0,15.890667l-43.765839,0c-1.811911,-5.231808 -6.785326,-9.000352 -12.62549,-9.000352s-10.813842,3.768544 -12.62549,9.000352l-12.12528,0c-0.077623,0 -0.140511,-0.062888 -0.140511,-0.140511l0,-4.640819l9.140863,0c1.164875,0 2.109511,-0.944373 2.109511,-2.109511c0,-1.164875 -0.944373,-2.109511 -2.109511,-2.109511l-20.250463,0c-1.164875,0 -2.109511,0.944373 -2.109511,2.109511c0,1.164875 0.944373,2.109511 2.109511,2.109511l6.890841,0l0,4.640819c0,2.403953 1.95558,4.359533 4.359533,4.359533l11.394569,0c-0.000526,0.046837 -0.003684,0.093411 -0.003684,0.140511c0,7.36658 5.993306,13.359622 13.359622,13.359622s13.359622,-5.993042 13.359622,-13.359622c0,-0.047363 -0.003158,-0.093674 -0.003684,-0.140511l47.539646,0c-0.000526,0.046837 -0.003684,0.093411 -0.003684,0.140511c0,7.36658 5.993306,13.359622 13.359622,13.359622c7.366316,0 13.359622,-5.993042 13.359622,-13.359622c0,-0.047363 -0.003158,-0.093674 -0.003684,-0.140511l6.894788,0c1.164875,0 2.109511,-0.944373 2.109511,-2.109511l0,-22.500748c0.000263,-5.554931 -4.098508,-10.170753 -9.430832,-10.982508zm-26.569786,-13.908511l18.744045,0l3.445421,13.781682l-22.189466,0l0,-13.781682zm15.89093,-9.000089c2.558936,0 4.640819,2.081882 4.640819,4.640819l0,0.140511l-20.531749,0l0,-4.78133l15.89093,0zm-76.502071,67.783004c-5.04025,0 -9.140863,-4.10035 -9.140863,-9.140863c0,-5.040513 4.100613,-9.140863 9.140863,-9.140863c5.04025,0 9.140863,4.10035 9.140863,9.140863c0,5.040513 -4.100613,9.140863 -9.140863,9.140863zm74.252048,0c-5.04025,0 -9.140863,-4.10035 -9.140863,-9.140863c0,-5.040513 4.100613,-9.140863 9.140863,-9.140863c5.04025,0 9.140863,4.10035 9.140863,9.140863c0,5.040513 -4.100613,9.140863 -9.140863,9.140863zm15.750419,-27.000793c-1.31828,0 -2.390797,-1.072517 -2.390797,-2.390797l0,-2.390797l4.78133,0l0,4.78133l-2.390533,0l0,0.000263z"/>
   <path stroke="null" id="svg_18" d="m71.110392,77.519944c-2.403953,0 -4.359533,1.95558 -4.359533,4.359533c0,2.403953 1.95558,4.359533 4.359533,4.359533c2.403953,0 4.359533,-1.95558 4.359533,-4.359533c0,-2.403953 -1.95558,-4.359533 -4.359533,-4.359533z"/>
   <path stroke="null" id="svg_19" d="m145.362441,77.519944c-2.403953,0 -4.359533,1.95558 -4.359533,4.359533c0,2.403953 1.95558,4.359533 4.359533,4.359533s4.359533,-1.95558 4.359533,-4.359533c0,-2.403953 -1.95558,-4.359533 -4.359533,-4.359533z"/>
   <path stroke="null" id="svg_20" d="m87.001585,70.629103c0,1.164875 0.944373,2.109511 2.109511,2.109511l31.500574,0c1.164875,0 2.109511,-0.944373 2.109511,-2.109511c0,-1.164875 -0.944373,-2.109511 -2.109511,-2.109511l-31.500837,0c-1.164875,0 -2.109248,0.944636 -2.109248,2.109511z"/>
   <path stroke="null" id="svg_21" d="m39.609555,63.738262l27.000793,0c1.164875,0 2.109511,-0.944373 2.109511,-2.109511c0,-1.164875 -0.944373,-2.109511 -2.109511,-2.109511l-27.000793,0c-1.164875,0 -2.109511,0.944373 -2.109511,2.109511c0,1.165138 0.944636,2.109511 2.109511,2.109511z"/>
   <path stroke="null" id="svg_22" d="m103.369832,30.886517l-18.759044,18.758781l-9.758692,-9.758692c-0.823859,-0.823859 -2.159506,-0.823859 -2.983102,0c-0.823859,0.823859 -0.823859,2.159242 0,2.983102l11.250374,11.250374c0.411798,0.412061 0.95174,0.617829 1.491419,0.617829s1.079621,-0.205767 1.491419,-0.617829l20.250463,-20.250463c0.823859,-0.823859 0.823859,-2.159242 0,-2.983102c-0.823333,-0.823596 -2.159242,-0.823596 -2.982838,0z"/>
   <g stroke="null" transform="matrix(0.26312971601466667,0,0,0.26312971601466667,-273.60055446624756,-472.37263697606977) " id="svg_23"/>
   <g stroke="null" transform="matrix(0.26312971601466667,0,0,0.26312971601466667,-273.60055446624756,-472.37263697606977) " id="svg_24"/>
   <g stroke="null" transform="matrix(0.26312971601466667,0,0,0.26312971601466667,-273.60055446624756,-472.37263697606977) " id="svg_25"/>
   <g stroke="null" transform="matrix(0.26312971601466667,0,0,0.26312971601466667,-273.60055446624756,-472.37263697606977) " id="svg_26"/>
   <g stroke="null" transform="matrix(0.26312971601466667,0,0,0.26312971601466667,-273.60055446624756,-472.37263697606977) " id="svg_27"/>
   <g stroke="null" transform="matrix(0.26312971601466667,0,0,0.26312971601466667,-273.60055446624756,-472.37263697606977) " id="svg_28"/>
   <g stroke="null" transform="matrix(0.26312971601466667,0,0,0.26312971601466667,-273.60055446624756,-472.37263697606977) " id="svg_29"/>
   <g stroke="null" transform="matrix(0.26312971601466667,0,0,0.26312971601466667,-273.60055446624756,-472.37263697606977) " id="svg_30"/>
   <g stroke="null" transform="matrix(0.26312971601466667,0,0,0.26312971601466667,-273.60055446624756,-472.37263697606977) " id="svg_31"/>
   <g stroke="null" transform="matrix(0.26312971601466667,0,0,0.26312971601466667,-273.60055446624756,-472.37263697606977) " id="svg_32"/>
   <g stroke="null" transform="matrix(0.26312971601466667,0,0,0.26312971601466667,-273.60055446624756,-472.37263697606977) " id="svg_33"/>
   <g stroke="null" transform="matrix(0.26312971601466667,0,0,0.26312971601466667,-273.60055446624756,-472.37263697606977) " id="svg_34"/>
   <g stroke="null" transform="matrix(0.26312971601466667,0,0,0.26312971601466667,-273.60055446624756,-472.37263697606977) " id="svg_35"/>
   <g stroke="null" transform="matrix(0.26312971601466667,0,0,0.26312971601466667,-273.60055446624756,-472.37263697606977) " id="svg_36"/>
   <g stroke="null" transform="matrix(0.26312971601466667,0,0,0.26312971601466667,-273.60055446624756,-472.37263697606977) " id="svg_37"/>
  </g>
  <text xml:space="preserve" text-anchor="start" font-family="Oswald, sans-serif" font-size="57" id="svg_39" y="80.5" x="216.5" stroke-width="0" stroke="#000" fill="#000000">-Pola</text>
  <text transform="rotate(-9 198.50000000000006,52.49999999999987) " xml:space="preserve" text-anchor="start" font-family="Oswald, sans-serif" font-size="57" id="svg_40" y="78.5" x="186.5" stroke-width="0" stroke="null" fill="#FFC850">e</text>
 </g>
</svg>